<?xml version="1.0" standalone="no"?>
<!DOCTYPE svg PUBLIC "-//W3C//DTD SVG 20010904//EN"
 "http://www.w3.org/TR/2001/REC-SVG-20010904/DTD/svg10.dtd">
<svg version="1.0" xmlns="http://www.w3.org/2000/svg"
 width="191.000000pt" height="191.000000pt" viewBox="0 0 191.000000 191.000000"
 preserveAspectRatio="xMidYMid meet">
<metadata>
Created by potrace 1.14, written by Peter Selinger 2001-2017
</metadata>
<g transform="translate(0.000000,191.000000) scale(0.100000,-0.100000)"
fill="#000000" stroke="none">
<path d="M265 1725 c-14 -13 -25 -34 -25 -47 -1 -13 -1 -138 -1 -279 0 -212 3
-264 17 -305 39 -115 135 -196 254 -213 l45 -6 1 -334 1 -335 27 -23 c43 -37
98 -27 123 22 6 12 10 140 9 338 -1 176 2 323 5 328 3 6 10 9 15 8 42 -12 158
41 212 98 79 84 88 130 87 456 l0 269 -28 24 c-29 24 -46 28 -82 18 -45 -12
-49 -34 -51 -294 -1 -135 -2 -248 -3 -251 -1 -7 -151 -7 -152 1 -1 3 -2 115
-4 250 -1 135 -3 248 -4 252 0 4 -11 16 -23 28 -29 27 -71 25 -104 -3 l-27
-23 -1 -254 -1 -254 -73 -2 c-40 -1 -75 3 -78 8 -4 6 -6 116 -6 247 0 145 -4
244 -11 256 -26 50 -83 60 -122 20z"/>
<path d="M1545 1733 c-11 -3 -24 -9 -29 -14 -6 -5 -16 -9 -23 -9 -41 0 -171
-125 -203 -195 -17 -37 -24 -537 -8 -600 12 -49 60 -102 102 -111 17 -4 53 -8
79 -8 l48 -1 0 -285 c1 -185 4 -291 11 -305 27 -50 84 -60 123 -20 l25 24 0
741 0 741 -25 24 c-23 24 -52 29 -100 18z"/>
</g>
</svg>
